<?xml version="1.0" encoding="UTF-8" standalone="no"?>
<!DOCTYPE svg PUBLIC "-//W3C//DTD SVG 1.1//EN"
 "http://www.w3.org/Graphics/SVG/1.1/DTD/svg11.dtd">
<!-- Generated by graphviz version 2.42.4 (0)
 -->
<!-- Pages: 1 -->
<svg width="878pt" height="503pt"
 viewBox="0.00 0.00 878.00 503.00" xmlns="http://www.w3.org/2000/svg" xmlns:xlink="http://www.w3.org/1999/xlink">
<g id="graph0" class="graph" transform="scale(1 1) rotate(0) translate(4 499)">
<polygon fill="white" stroke="transparent" points="-4,4 -4,-499 874,-499 874,4 -4,4"/>
<g id="clust1" class="cluster">
<title>cluster__dto</title>
<polygon fill="none" stroke="black" stroke-dasharray="1,5" points="8,-8 8,-487 862,-487 862,-8 8,-8"/>
<text text-anchor="middle" x="435" y="-471.8" font-family="Times,serif" font-size="14.00">Dto</text>
</g>
<g id="clust2" class="cluster">
<title>cluster__header</title>
<polygon fill="none" stroke="black" stroke-dasharray="1,5" points="321,-219 321,-456 643,-456 643,-219 321,-219"/>
<text text-anchor="middle" x="482" y="-440.8" font-family="Times,serif" font-size="14.00">Dto::Header</text>
</g>
<g id="clust3" class="cluster">
<title>cluster__entry</title>
<polygon fill="none" stroke="black" stroke-dasharray="1,5" points="383.5,-16 383.5,-211 854,-211 854,-16 383.5,-16"/>
<text text-anchor="middle" x="618.75" y="-195.8" font-family="Times,serif" font-size="14.00">Dto::Entry</text>
</g>
<!-- dto__seq -->
<g id="node1" class="node">
<title>dto__seq</title>
<polygon fill="#e0ffe0" stroke="transparent" points="24.5,-336 24.5,-357 95.5,-357 95.5,-336 24.5,-336"/>
<polygon fill="none" stroke="black" points="24.5,-336 24.5,-357 95.5,-357 95.5,-336 24.5,-336"/>
<text text-anchor="start" x="47.5" y="-342.8" font-family="Times,serif" font-size="14.00">pos</text>
<polygon fill="#e0ffe0" stroke="transparent" points="95.5,-336 95.5,-357 149.5,-357 149.5,-336 95.5,-336"/>
<polygon fill="none" stroke="black" points="95.5,-336 95.5,-357 149.5,-357 149.5,-336 95.5,-336"/>
<text text-anchor="start" x="108.5" y="-342.8" font-family="Times,serif" font-size="14.00">size</text>
<polygon fill="#e0ffe0" stroke="transparent" points="149.5,-336 149.5,-357 218.5,-357 218.5,-336 149.5,-336"/>
<polygon fill="none" stroke="black" points="149.5,-336 149.5,-357 218.5,-357 218.5,-336 149.5,-336"/>
<text text-anchor="start" x="168" y="-342.8" font-family="Times,serif" font-size="14.00">type</text>
<polygon fill="#e0ffe0" stroke="transparent" points="218.5,-336 218.5,-357 285.5,-357 285.5,-336 218.5,-336"/>
<polygon fill="none" stroke="black" points="218.5,-336 218.5,-357 285.5,-357 285.5,-336 218.5,-336"/>
<text text-anchor="start" x="245" y="-342.8" font-family="Times,serif" font-size="14.00">id</text>
<polygon fill="none" stroke="black" points="24.5,-315 24.5,-336 95.5,-336 95.5,-315 24.5,-315"/>
<text text-anchor="start" x="55" y="-321.8" font-family="Times,serif" font-size="14.00">0</text>
<polygon fill="none" stroke="black" points="95.5,-315 95.5,-336 149.5,-336 149.5,-315 95.5,-315"/>
<text text-anchor="start" x="113" y="-321.8" font-family="Times,serif" font-size="14.00">32</text>
<polygon fill="none" stroke="black" points="149.5,-315 149.5,-336 218.5,-336 218.5,-315 149.5,-315"/>
<text text-anchor="start" x="157.5" y="-321.8" font-family="Times,serif" font-size="14.00">Header</text>
<polygon fill="none" stroke="black" points="218.5,-315 218.5,-336 285.5,-336 285.5,-315 218.5,-315"/>
<text text-anchor="start" x="227" y="-321.8" font-family="Times,serif" font-size="14.00">header</text>
<polygon fill="none" stroke="black" points="24.5,-294 24.5,-315 95.5,-315 95.5,-294 24.5,-294"/>
<text text-anchor="start" x="50.5" y="-300.8" font-family="Times,serif" font-size="14.00">32</text>
<polygon fill="none" stroke="black" points="95.5,-294 95.5,-315 149.5,-315 149.5,-294 95.5,-294"/>
<text text-anchor="start" x="113" y="-300.8" font-family="Times,serif" font-size="14.00">32</text>
<polygon fill="none" stroke="black" points="149.5,-294 149.5,-315 218.5,-315 218.5,-294 149.5,-294"/>
<text text-anchor="start" x="163.5" y="-300.8" font-family="Times,serif" font-size="14.00">Entry</text>
<polygon fill="none" stroke="black" points="218.5,-294 218.5,-315 285.5,-315 285.5,-294 218.5,-294"/>
<text text-anchor="start" x="226.5" y="-300.8" font-family="Times,serif" font-size="14.00">entries</text>
<polygon fill="none" stroke="black" points="24.5,-273 24.5,-294 285.5,-294 285.5,-273 24.5,-273"/>
<text text-anchor="start" x="27.5" y="-279.8" font-family="Times,serif" font-size="14.00">repeat header.dt_entry_count times</text>
</g>
<!-- header__seq -->
<g id="node2" class="node">
<title>header__seq</title>
<polygon fill="#e0ffe0" stroke="transparent" points="337,-399 337,-420 368,-420 368,-399 337,-399"/>
<polygon fill="none" stroke="black" points="337,-399 337,-420 368,-420 368,-399 337,-399"/>
<text text-anchor="start" x="340" y="-405.8" font-family="Times,serif" font-size="14.00">pos</text>
<polygon fill="#e0ffe0" stroke="transparent" points="368,-399 368,-420 402,-420 402,-399 368,-399"/>
<polygon fill="none" stroke="black" points="368,-399 368,-420 402,-420 402,-399 368,-399"/>
<text text-anchor="start" x="371" y="-405.8" font-family="Times,serif" font-size="14.00">size</text>
<polygon fill="#e0ffe0" stroke="transparent" points="402,-399 402,-420 502,-420 502,-399 402,-399"/>
<polygon fill="none" stroke="black" points="402,-399 402,-420 502,-420 502,-399 402,-399"/>
<text text-anchor="start" x="436" y="-405.8" font-family="Times,serif" font-size="14.00">type</text>
<polygon fill="#e0ffe0" stroke="transparent" points="502,-399 502,-420 627,-420 627,-399 502,-399"/>
<polygon fill="none" stroke="black" points="502,-399 502,-420 627,-420 627,-399 502,-399"/>
<text text-anchor="start" x="557.5" y="-405.8" font-family="Times,serif" font-size="14.00">id</text>
<polygon fill="none" stroke="black" points="337,-378 337,-399 368,-399 368,-378 337,-378"/>
<text text-anchor="start" x="347.5" y="-384.8" font-family="Times,serif" font-size="14.00">0</text>
<polygon fill="none" stroke="black" points="368,-378 368,-399 402,-399 402,-378 368,-378"/>
<text text-anchor="start" x="380" y="-384.8" font-family="Times,serif" font-size="14.00">4</text>
<polygon fill="none" stroke="black" points="402,-378 402,-399 502,-399 502,-378 402,-378"/>
<text text-anchor="start" x="405" y="-384.8" font-family="Times,serif" font-size="14.00">D7 B7 AB 1E</text>
<polygon fill="none" stroke="black" points="502,-378 502,-399 627,-399 627,-378 502,-378"/>
<text text-anchor="start" x="543" y="-384.8" font-family="Times,serif" font-size="14.00">magic</text>
<polygon fill="none" stroke="black" points="337,-357 337,-378 368,-378 368,-357 337,-357"/>
<text text-anchor="start" x="347.5" y="-363.8" font-family="Times,serif" font-size="14.00">4</text>
<polygon fill="none" stroke="black" points="368,-357 368,-378 402,-378 402,-357 368,-357"/>
<text text-anchor="start" x="380" y="-363.8" font-family="Times,serif" font-size="14.00">4</text>
<polygon fill="none" stroke="black" points="402,-357 402,-378 502,-378 502,-357 402,-357"/>
<text text-anchor="start" x="434" y="-363.8" font-family="Times,serif" font-size="14.00">u4be</text>
<polygon fill="none" stroke="black" points="502,-357 502,-378 627,-378 627,-357 502,-357"/>
<text text-anchor="start" x="530.5" y="-363.8" font-family="Times,serif" font-size="14.00">total_size</text>
<polygon fill="none" stroke="black" points="337,-336 337,-357 368,-357 368,-336 337,-336"/>
<text text-anchor="start" x="347.5" y="-342.8" font-family="Times,serif" font-size="14.00">8</text>
<polygon fill="none" stroke="black" points="368,-336 368,-357 402,-357 402,-336 368,-336"/>
<text text-anchor="start" x="380" y="-342.8" font-family="Times,serif" font-size="14.00">4</text>
<polygon fill="none" stroke="black" points="402,-336 402,-357 502,-357 502,-336 402,-336"/>
<text text-anchor="start" x="434" y="-342.8" font-family="Times,serif" font-size="14.00">u4be</text>
<polygon fill="none" stroke="black" points="502,-336 502,-357 627,-357 627,-336 502,-336"/>
<text text-anchor="start" x="522" y="-342.8" font-family="Times,serif" font-size="14.00">header_size</text>
<polygon fill="none" stroke="black" points="337,-315 337,-336 368,-336 368,-315 337,-315"/>
<text text-anchor="start" x="343" y="-321.8" font-family="Times,serif" font-size="14.00">12</text>
<polygon fill="none" stroke="black" points="368,-315 368,-336 402,-336 402,-315 368,-315"/>
<text text-anchor="start" x="380" y="-321.8" font-family="Times,serif" font-size="14.00">4</text>
<polygon fill="none" stroke="black" points="402,-315 402,-336 502,-336 502,-315 402,-315"/>
<text text-anchor="start" x="434" y="-321.8" font-family="Times,serif" font-size="14.00">u4be</text>
<polygon fill="none" stroke="black" points="502,-315 502,-336 627,-336 627,-315 502,-315"/>
<text text-anchor="start" x="517" y="-321.8" font-family="Times,serif" font-size="14.00">dt_entry_size</text>
<polygon fill="none" stroke="black" points="337,-294 337,-315 368,-315 368,-294 337,-294"/>
<text text-anchor="start" x="343" y="-300.8" font-family="Times,serif" font-size="14.00">16</text>
<polygon fill="none" stroke="black" points="368,-294 368,-315 402,-315 402,-294 368,-294"/>
<text text-anchor="start" x="380" y="-300.8" font-family="Times,serif" font-size="14.00">4</text>
<polygon fill="none" stroke="black" points="402,-294 402,-315 502,-315 502,-294 402,-294"/>
<text text-anchor="start" x="434" y="-300.8" font-family="Times,serif" font-size="14.00">u4be</text>
<polygon fill="none" stroke="black" points="502,-294 502,-315 627,-315 627,-294 502,-294"/>
<text text-anchor="start" x="511" y="-300.8" font-family="Times,serif" font-size="14.00">dt_entry_count</text>
<polygon fill="none" stroke="black" points="337,-273 337,-294 368,-294 368,-273 337,-273"/>
<text text-anchor="start" x="343" y="-279.8" font-family="Times,serif" font-size="14.00">20</text>
<polygon fill="none" stroke="black" points="368,-273 368,-294 402,-294 402,-273 368,-273"/>
<text text-anchor="start" x="380" y="-279.8" font-family="Times,serif" font-size="14.00">4</text>
<polygon fill="none" stroke="black" points="402,-273 402,-294 502,-294 502,-273 402,-273"/>
<text text-anchor="start" x="434" y="-279.8" font-family="Times,serif" font-size="14.00">u4be</text>
<polygon fill="none" stroke="black" points="502,-273 502,-294 627,-294 627,-273 502,-273"/>
<text text-anchor="start" x="505" y="-279.8" font-family="Times,serif" font-size="14.00">dt_entries_offset</text>
<polygon fill="none" stroke="black" points="337,-252 337,-273 368,-273 368,-252 337,-252"/>
<text text-anchor="start" x="343" y="-258.8" font-family="Times,serif" font-size="14.00">24</text>
<polygon fill="none" stroke="black" points="368,-252 368,-273 402,-273 402,-252 368,-252"/>
<text text-anchor="start" x="380" y="-258.8" font-family="Times,serif" font-size="14.00">4</text>
<polygon fill="none" stroke="black" points="402,-252 402,-273 502,-273 502,-252 402,-252"/>
<text text-anchor="start" x="434" y="-258.8" font-family="Times,serif" font-size="14.00">u4be</text>
<polygon fill="none" stroke="black" points="502,-252 502,-273 627,-273 627,-252 502,-252"/>
<text text-anchor="start" x="529.5" y="-258.8" font-family="Times,serif" font-size="14.00">page_size</text>
<polygon fill="none" stroke="black" points="337,-231 337,-252 368,-252 368,-231 337,-231"/>
<text text-anchor="start" x="343" y="-237.8" font-family="Times,serif" font-size="14.00">28</text>
<polygon fill="none" stroke="black" points="368,-231 368,-252 402,-252 402,-231 368,-231"/>
<text text-anchor="start" x="380" y="-237.8" font-family="Times,serif" font-size="14.00">4</text>
<polygon fill="none" stroke="black" points="402,-231 402,-252 502,-252 502,-231 402,-231"/>
<text text-anchor="start" x="434" y="-237.8" font-family="Times,serif" font-size="14.00">u4be</text>
<polygon fill="none" stroke="black" points="502,-231 502,-252 627,-252 627,-231 502,-231"/>
<text text-anchor="start" x="538" y="-237.8" font-family="Times,serif" font-size="14.00">version</text>
</g>
<!-- dto__seq&#45;&gt;header__seq -->
<g id="edge1" class="edge">
<title>dto__seq:header_type&#45;&gt;header__seq</title>
<path fill="none" stroke="black" stroke-width="2" d="M286.5,-326C297.04,-326 307.89,-326 318.83,-326"/>
<polygon fill="black" stroke="black" stroke-width="2" points="318.9,-329.5 328.9,-326 318.9,-322.5 318.9,-329.5"/>
</g>
<!-- entry__seq -->
<g id="node3" class="node">
<title>entry__seq</title>
<polygon fill="#e0ffe0" stroke="transparent" points="400,-154 400,-175 431,-175 431,-154 400,-154"/>
<polygon fill="none" stroke="black" points="400,-154 400,-175 431,-175 431,-154 400,-154"/>
<text text-anchor="start" x="403" y="-160.8" font-family="Times,serif" font-size="14.00">pos</text>
<polygon fill="#e0ffe0" stroke="transparent" points="431,-154 431,-175 465,-175 465,-154 431,-154"/>
<polygon fill="none" stroke="black" points="431,-154 431,-175 465,-175 465,-154 431,-154"/>
<text text-anchor="start" x="434" y="-160.8" font-family="Times,serif" font-size="14.00">size</text>
<polygon fill="#e0ffe0" stroke="transparent" points="465,-154 465,-175 507,-175 507,-154 465,-154"/>
<polygon fill="none" stroke="black" points="465,-154 465,-175 507,-175 507,-154 465,-154"/>
<text text-anchor="start" x="470" y="-160.8" font-family="Times,serif" font-size="14.00">type</text>
<polygon fill="#e0ffe0" stroke="transparent" points="507,-154 507,-175 565,-175 565,-154 507,-154"/>
<polygon fill="none" stroke="black" points="507,-154 507,-175 565,-175 565,-154 507,-154"/>
<text text-anchor="start" x="529" y="-160.8" font-family="Times,serif" font-size="14.00">id</text>
<polygon fill="none" stroke="black" points="400,-133 400,-154 431,-154 431,-133 400,-133"/>
<text text-anchor="start" x="410.5" y="-139.8" font-family="Times,serif" font-size="14.00">0</text>
<polygon fill="none" stroke="black" points="431,-133 431,-154 465,-154 465,-133 431,-133"/>
<text text-anchor="start" x="443" y="-139.8" font-family="Times,serif" font-size="14.00">4</text>
<polygon fill="none" stroke="black" points="465,-133 465,-154 507,-154 507,-133 465,-133"/>
<text text-anchor="start" x="468" y="-139.8" font-family="Times,serif" font-size="14.00">u4be</text>
<polygon fill="none" stroke="black" points="507,-133 507,-154 565,-154 565,-133 507,-133"/>
<text text-anchor="start" x="522" y="-139.8" font-family="Times,serif" font-size="14.00">size</text>
<polygon fill="none" stroke="black" points="400,-112 400,-133 431,-133 431,-112 400,-112"/>
<text text-anchor="start" x="410.5" y="-118.8" font-family="Times,serif" font-size="14.00">4</text>
<polygon fill="none" stroke="black" points="431,-112 431,-133 465,-133 465,-112 431,-112"/>
<text text-anchor="start" x="443" y="-118.8" font-family="Times,serif" font-size="14.00">4</text>
<polygon fill="none" stroke="black" points="465,-112 465,-133 507,-133 507,-112 465,-112"/>
<text text-anchor="start" x="468" y="-118.8" font-family="Times,serif" font-size="14.00">u4be</text>
<polygon fill="none" stroke="black" points="507,-112 507,-133 565,-133 565,-112 507,-112"/>
<text text-anchor="start" x="516" y="-118.8" font-family="Times,serif" font-size="14.00">offset</text>
<polygon fill="none" stroke="black" points="400,-91 400,-112 431,-112 431,-91 400,-91"/>
<text text-anchor="start" x="410.5" y="-97.8" font-family="Times,serif" font-size="14.00">8</text>
<polygon fill="none" stroke="black" points="431,-91 431,-112 465,-112 465,-91 431,-91"/>
<text text-anchor="start" x="443" y="-97.8" font-family="Times,serif" font-size="14.00">4</text>
<polygon fill="none" stroke="black" points="465,-91 465,-112 507,-112 507,-91 465,-91"/>
<text text-anchor="start" x="468" y="-97.8" font-family="Times,serif" font-size="14.00">u4be</text>
<polygon fill="none" stroke="black" points="507,-91 507,-112 565,-112 565,-91 507,-91"/>
<text text-anchor="start" x="529" y="-97.8" font-family="Times,serif" font-size="14.00">id</text>
<polygon fill="none" stroke="black" points="400,-70 400,-91 431,-91 431,-70 400,-70"/>
<text text-anchor="start" x="406" y="-76.8" font-family="Times,serif" font-size="14.00">12</text>
<polygon fill="none" stroke="black" points="431,-70 431,-91 465,-91 465,-70 431,-70"/>
<text text-anchor="start" x="443" y="-76.8" font-family="Times,serif" font-size="14.00">4</text>
<polygon fill="none" stroke="black" points="465,-70 465,-91 507,-91 507,-70 465,-70"/>
<text text-anchor="start" x="468" y="-76.8" font-family="Times,serif" font-size="14.00">u4be</text>
<polygon fill="none" stroke="black" points="507,-70 507,-91 565,-91 565,-70 507,-70"/>
<text text-anchor="start" x="524" y="-76.8" font-family="Times,serif" font-size="14.00">rev</text>
<polygon fill="none" stroke="black" points="400,-49 400,-70 431,-70 431,-49 400,-49"/>
<text text-anchor="start" x="406" y="-55.8" font-family="Times,serif" font-size="14.00">16</text>
<polygon fill="none" stroke="black" points="431,-49 431,-70 465,-70 465,-49 431,-49"/>
<text text-anchor="start" x="443" y="-55.8" font-family="Times,serif" font-size="14.00">4</text>
<polygon fill="none" stroke="black" points="465,-49 465,-70 507,-70 507,-49 465,-49"/>
<text text-anchor="start" x="468" y="-55.8" font-family="Times,serif" font-size="14.00">u4be</text>
<polygon fill="none" stroke="black" points="507,-49 507,-70 565,-70 565,-49 507,-49"/>
<text text-anchor="start" x="510" y="-55.8" font-family="Times,serif" font-size="14.00">custom</text>
<polygon fill="none" stroke="black" points="400,-28 400,-49 565,-49 565,-28 400,-28"/>
<text text-anchor="start" x="430" y="-34.8" font-family="Times,serif" font-size="14.00">repeat 4 times</text>
</g>
<!-- dto__seq&#45;&gt;entry__seq -->
<g id="edge2" class="edge">
<title>dto__seq:entries_type&#45;&gt;entry__seq</title>
<path fill="none" stroke="black" stroke-width="2" d="M286.5,-304C328.92,-304 294.89,-248.44 321,-215 338.05,-193.16 360.46,-173.77 383.09,-157.49"/>
<polygon fill="black" stroke="black" stroke-width="2" points="385.26,-160.24 391.43,-151.63 381.23,-154.51 385.26,-160.24"/>
</g>
<!-- header__seq&#45;&gt;dto__seq -->
<g id="edge3" class="edge">
<title>header__seq:dt_entry_count_type&#45;&gt;dto__seq:entries__repeat</title>
<path fill="none" stroke="#404040" d="M628,-304C662,-304 651.2,-251.39 627,-227.5 615.22,-215.87 343.84,-220.17 329,-227.5 304.84,-239.43 313.99,-272.41 296.58,-280.95"/>
<polygon fill="#404040" stroke="#404040" points="295.6,-277.58 286.5,-283 297,-284.44 295.6,-277.58"/>
</g>
<!-- entry__inst__body -->
<g id="node4" class="node">
<title>entry__inst__body</title>
<polygon fill="#e0ffe0" stroke="transparent" points="679.5,-144 679.5,-165 725.5,-165 725.5,-144 679.5,-144"/>
<polygon fill="none" stroke="black" points="679.5,-144 679.5,-165 725.5,-165 725.5,-144 679.5,-144"/>
<text text-anchor="start" x="690" y="-150.8" font-family="Times,serif" font-size="14.00">pos</text>
<polygon fill="#e0ffe0" stroke="transparent" points="725.5,-144 725.5,-165 759.5,-165 759.5,-144 725.5,-144"/>
<polygon fill="none" stroke="black" points="725.5,-144 725.5,-165 759.5,-165 759.5,-144 725.5,-144"/>
<text text-anchor="start" x="728.5" y="-150.8" font-family="Times,serif" font-size="14.00">size</text>
<polygon fill="#e0ffe0" stroke="transparent" points="759.5,-144 759.5,-165 797.5,-165 797.5,-144 759.5,-144"/>
<polygon fill="none" stroke="black" points="759.5,-144 759.5,-165 797.5,-165 797.5,-144 759.5,-144"/>
<text text-anchor="start" x="762.5" y="-150.8" font-family="Times,serif" font-size="14.00">type</text>
<polygon fill="#e0ffe0" stroke="transparent" points="797.5,-144 797.5,-165 838.5,-165 838.5,-144 797.5,-144"/>
<polygon fill="none" stroke="black" points="797.5,-144 797.5,-165 838.5,-165 838.5,-144 797.5,-144"/>
<text text-anchor="start" x="811" y="-150.8" font-family="Times,serif" font-size="14.00">id</text>
<polygon fill="none" stroke="black" points="679.5,-123 679.5,-144 725.5,-144 725.5,-123 679.5,-123"/>
<text text-anchor="start" x="682.5" y="-129.8" font-family="Times,serif" font-size="14.00">offset</text>
<polygon fill="none" stroke="black" points="725.5,-123 725.5,-144 759.5,-144 759.5,-123 725.5,-123"/>
<text text-anchor="start" x="728.5" y="-129.8" font-family="Times,serif" font-size="14.00">size</text>
<polygon fill="none" stroke="black" points="759.5,-123 759.5,-144 797.5,-144 797.5,-123 759.5,-123"/>
<polygon fill="none" stroke="black" points="797.5,-123 797.5,-144 838.5,-144 838.5,-123 797.5,-123"/>
<text text-anchor="start" x="800.5" y="-129.8" font-family="Times,serif" font-size="14.00">body</text>
</g>
<!-- entry__seq&#45;&gt;entry__inst__body -->
<g id="edge4" class="edge">
<title>entry__seq:offset_type&#45;&gt;entry__inst__body:body_pos</title>
<path fill="none" stroke="#404040" d="M566,-123C612.67,-123 626.41,-131.64 668.45,-132.86"/>
<polygon fill="#404040" stroke="#404040" points="668.45,-136.36 678.5,-133 668.55,-129.36 668.45,-136.36"/>
</g>
<!-- entry__seq&#45;&gt;entry__inst__body -->
<g id="edge5" class="edge">
<title>entry__seq:size_type&#45;&gt;entry__inst__body:body_size</title>
<path fill="none" stroke="#404040" d="M566,-144C641.19,-144 733.03,-52.58 741.82,-111.68"/>
<polygon fill="#404040" stroke="#404040" points="738.35,-112.25 742.5,-122 745.33,-111.79 738.35,-112.25"/>
</g>
</g>
</svg>
